<svg width="1531" height="719" viewBox="0 0 1531 719" fill="none" xmlns="http://www.w3.org/2000/svg">
<path d="M444.353 228.718C431.342 228.718 419.26 226.704 408.107 222.677C397.109 218.494 387.506 212.608 379.296 205.018C371.241 197.428 364.968 188.444 360.476 178.066C355.984 167.688 353.738 156.226 353.738 143.679C353.738 131.132 355.984 119.67 360.476 109.292C364.968 98.9135 371.241 89.9294 379.296 82.3394C387.506 74.7495 397.109 68.9408 408.107 64.9135C419.26 60.7312 431.342 58.6401 444.353 58.6401C460.307 58.6401 474.403 61.4283 486.64 67.0046C499.032 72.5809 509.255 80.6356 517.31 91.1686L482.69 122.071C477.888 116.03 472.544 111.383 466.658 108.13C460.927 104.722 454.421 103.018 447.141 103.018C441.41 103.018 436.221 103.948 431.574 105.806C426.927 107.665 422.9 110.376 419.492 113.939C416.239 117.501 413.683 121.838 411.825 126.95C409.966 131.907 409.036 137.483 409.036 143.679C409.036 149.875 409.966 155.528 411.825 160.64C413.683 165.597 416.239 169.857 419.492 173.419C422.9 176.982 426.927 179.692 431.574 181.551C436.221 183.41 441.41 184.339 447.141 184.339C454.421 184.339 460.927 182.713 466.658 179.46C472.544 176.052 477.888 171.328 482.69 165.287L517.31 196.189C509.255 206.567 499.032 214.622 486.64 220.353C474.403 225.929 460.307 228.718 444.353 228.718ZM615.01 228.718C601.843 228.718 589.606 226.626 578.299 222.444C567.146 218.262 557.465 212.376 549.256 204.786C541.046 197.041 534.618 187.98 529.971 177.601C525.479 167.223 523.233 155.916 523.233 143.679C523.233 131.287 525.479 119.98 529.971 109.756C534.618 99.3782 541.046 90.3941 549.256 82.8041C557.465 75.0593 567.146 69.0957 578.299 64.9135C589.606 60.7312 601.843 58.6401 615.01 58.6401C628.331 58.6401 640.568 60.7312 651.72 64.9135C662.873 69.0957 672.554 75.0593 680.763 82.8041C688.973 90.3941 695.324 99.3782 699.816 109.756C704.463 119.98 706.786 131.287 706.786 143.679C706.786 155.916 704.463 167.223 699.816 177.601C695.324 187.98 688.973 197.041 680.763 204.786C672.554 212.376 662.873 218.262 651.72 222.444C640.568 226.626 628.331 228.718 615.01 228.718ZM615.01 184.339C620.121 184.339 624.845 183.41 629.183 181.551C633.675 179.692 637.547 177.059 640.8 173.651C644.208 170.089 646.841 165.829 648.7 160.872C650.558 155.761 651.488 150.03 651.488 143.679C651.488 137.328 650.558 131.674 648.7 126.718C646.841 121.606 644.208 117.346 640.8 113.939C637.547 110.376 633.675 107.665 629.183 105.806C624.845 103.948 620.121 103.018 615.01 103.018C609.898 103.018 605.096 103.948 600.604 105.806C596.267 107.665 592.394 110.376 588.987 113.939C585.734 117.346 583.178 121.606 581.319 126.718C579.461 131.674 578.531 137.328 578.531 143.679C578.531 150.03 579.461 155.761 581.319 160.872C583.178 165.829 585.734 170.089 588.987 173.651C592.394 177.059 596.267 179.692 600.604 181.551C605.096 183.41 609.898 184.339 615.01 184.339ZM804.524 228.718C779.586 228.718 760.146 221.979 746.205 208.503C732.264 195.027 725.294 176.13 725.294 151.811V62.3577L780.128 62.3577V150.185C780.128 162.576 782.374 171.405 786.866 176.672C791.358 181.784 797.399 184.339 804.989 184.339C812.734 184.339 818.775 181.784 823.112 176.672C827.604 171.405 829.85 162.576 829.85 150.185V62.3577L883.754 62.3577V151.811C883.754 176.13 876.784 195.027 862.843 208.503C848.902 221.979 829.463 228.718 804.524 228.718ZM908.889 225V62.3577L987.19 62.3577C1002.37 62.3577 1015.46 64.836 1026.46 69.7927C1037.61 74.7495 1046.21 81.8747 1052.25 91.1686C1058.29 100.308 1061.31 111.15 1061.31 123.697C1061.31 136.244 1058.29 147.087 1052.25 156.226C1046.21 165.21 1037.61 172.103 1026.46 176.904C1015.46 181.706 1002.37 184.107 987.19 184.107L939.327 184.107L963.723 161.569V225H908.889ZM1006.24 225L966.279 165.752H1024.37L1064.79 225H1006.24ZM963.723 167.61L939.327 142.749L983.705 142.749C991.295 142.749 996.871 141.046 1000.43 137.638C1004.15 134.23 1006.01 129.583 1006.01 123.697C1006.01 117.811 1004.15 113.164 1000.43 109.756C996.871 106.349 991.295 104.645 983.705 104.645H939.327L963.723 79.7836V167.61ZM1142.66 228.718C1129.03 228.718 1115.86 227.169 1103.16 224.071C1090.46 220.973 1080 216.945 1071.79 211.989L1089.45 172.025C1097.19 176.517 1105.79 180.157 1115.24 182.945C1124.84 185.579 1134.14 186.895 1143.12 186.895C1148.39 186.895 1152.49 186.585 1155.44 185.966C1158.53 185.191 1160.78 184.185 1162.17 182.945C1163.57 181.551 1164.26 179.925 1164.26 178.066C1164.26 175.123 1162.64 172.8 1159.39 171.096C1156.13 169.392 1151.8 167.998 1146.37 166.913C1141.11 165.674 1135.3 164.435 1128.95 163.196C1122.6 161.802 1116.17 160.021 1109.66 157.852C1103.31 155.683 1097.43 152.818 1092.01 149.255C1086.74 145.693 1082.48 141.046 1079.23 135.314C1075.97 129.428 1074.35 122.148 1074.35 113.474C1074.35 103.405 1077.14 94.2665 1082.71 86.057C1088.44 77.6925 1096.88 71.0319 1108.04 66.0752C1119.34 61.1185 1133.36 58.6401 1150.09 58.6401C1161.09 58.6401 1171.93 59.8019 1182.62 62.1253C1193.31 64.4488 1202.91 68.0114 1211.43 72.8132L1194.93 112.544C1186.88 108.517 1179.06 105.497 1171.47 103.483C1164.03 101.469 1156.75 100.462 1149.63 100.462C1144.36 100.462 1140.18 100.927 1137.08 101.857C1133.98 102.786 1131.74 104.025 1130.34 105.574C1129.1 107.123 1128.48 108.827 1128.48 110.686C1128.48 113.474 1130.11 115.72 1133.36 117.424C1136.62 118.973 1140.88 120.289 1146.14 121.374C1151.56 122.458 1157.45 123.62 1163.8 124.859C1170.31 126.098 1176.73 127.802 1183.09 129.97C1189.44 132.139 1195.24 135.005 1200.51 138.567C1205.93 142.13 1210.27 146.777 1213.52 152.508C1216.78 158.239 1218.4 165.364 1218.4 173.884C1218.4 183.797 1215.54 192.936 1209.8 201.301C1204.23 209.51 1195.86 216.171 1184.71 221.282C1173.56 226.239 1159.54 228.718 1142.66 228.718ZM1284.91 122.768H1357.4V162.267L1284.91 162.267V122.768ZM1288.62 183.642L1369.94 183.642V225L1234.72 225V62.3577L1366.92 62.3577V103.715L1288.62 103.715V183.642ZM1451.7 228.718C1438.06 228.718 1424.9 227.169 1412.2 224.071C1399.49 220.973 1389.04 216.945 1380.83 211.989L1398.49 172.025C1406.23 176.517 1414.83 180.157 1424.28 182.945C1433.88 185.579 1443.18 186.895 1452.16 186.895C1457.43 186.895 1461.53 186.585 1464.47 185.966C1467.57 185.191 1469.82 184.185 1471.21 182.945C1472.61 181.551 1473.3 179.925 1473.3 178.066C1473.3 175.123 1471.68 172.8 1468.42 171.096C1465.17 169.392 1460.83 167.998 1455.41 166.913C1450.15 165.674 1444.34 164.435 1437.99 163.196C1431.64 161.802 1425.21 160.021 1418.7 157.852C1412.35 155.683 1406.47 152.818 1401.04 149.255C1395.78 145.693 1391.52 141.046 1388.26 135.314C1385.01 129.428 1383.39 122.148 1383.39 113.474C1383.39 103.405 1386.17 94.2665 1391.75 86.057C1397.48 77.6925 1405.92 71.0319 1417.08 66.0752C1428.38 61.1185 1442.4 58.6401 1459.13 58.6401C1470.13 58.6401 1480.97 59.8019 1491.66 62.1253C1502.35 64.4488 1511.95 68.0114 1520.47 72.8132L1503.97 112.544C1495.92 108.517 1488.1 105.497 1480.51 103.483C1473.07 101.469 1465.79 100.462 1458.67 100.462C1453.4 100.462 1449.22 100.927 1446.12 101.857C1443.02 102.786 1440.78 104.025 1439.38 105.574C1438.14 107.123 1437.52 108.827 1437.52 110.686C1437.52 113.474 1439.15 115.72 1442.4 117.424C1445.65 118.973 1449.91 120.289 1455.18 121.374C1460.6 122.458 1466.49 123.62 1472.84 124.859C1479.34 126.098 1485.77 127.802 1492.12 129.97C1498.47 132.139 1504.28 135.005 1509.55 138.567C1514.97 142.13 1519.31 146.777 1522.56 152.508C1525.81 158.239 1527.44 165.364 1527.44 173.884C1527.44 183.797 1524.57 192.936 1518.84 201.301C1513.27 209.51 1504.9 216.171 1493.75 221.282C1482.6 226.239 1468.58 228.718 1451.7 228.718Z" fill="white" fill-opacity="0.05"/>
<path d="M97.3531 664.718C80.1594 664.718 64.6697 661.155 50.8838 654.03C37.0979 646.749 26.2551 636.681 18.3553 623.825C10.6105 610.813 6.73804 596.098 6.73804 579.679C6.73804 563.26 10.6105 548.622 18.3553 535.765C26.2551 522.754 37.0979 512.686 50.8838 505.56C64.6697 498.28 80.1594 494.64 97.3531 494.64C113.153 494.64 127.248 497.428 139.64 503.005C152.032 508.581 162.255 516.636 170.31 527.169L135.69 558.071C125.622 545.369 113.772 539.018 100.141 539.018C88.6788 539.018 79.4624 542.736 72.492 550.171C65.5216 557.451 62.0364 567.287 62.0364 579.679C62.0364 592.071 65.5216 601.984 72.492 609.419C79.4624 616.699 88.6788 620.339 100.141 620.339C113.772 620.339 125.622 613.989 135.69 601.287L170.31 632.189C162.255 642.722 152.032 650.777 139.64 656.353C127.248 661.929 113.153 664.718 97.3531 664.718ZM268.01 664.718C250.506 664.718 234.784 661.077 220.843 653.797C206.902 646.517 195.982 636.449 188.082 623.592C180.183 610.581 176.233 595.943 176.233 579.679C176.233 563.415 180.183 548.854 188.082 535.998C195.982 522.986 206.902 512.841 220.843 505.56C234.784 498.28 250.506 494.64 268.01 494.64C285.513 494.64 301.235 498.28 315.176 505.56C329.117 512.841 340.037 522.986 347.937 535.998C355.836 548.854 359.786 563.415 359.786 579.679C359.786 595.943 355.836 610.581 347.937 623.592C340.037 636.449 329.117 646.517 315.176 653.797C301.235 661.077 285.513 664.718 268.01 664.718ZM268.01 620.339C274.825 620.339 280.943 618.713 286.365 615.46C291.941 612.052 296.356 607.328 299.609 601.287C302.861 595.091 304.488 587.888 304.488 579.679C304.488 571.469 302.861 564.344 299.609 558.303C296.356 552.107 291.941 547.383 286.365 544.13C280.943 540.722 274.825 539.018 268.01 539.018C261.194 539.018 254.998 540.722 249.422 544.13C244 547.383 239.663 552.107 236.41 558.303C233.158 564.344 231.531 571.469 231.531 579.679C231.531 587.888 233.158 595.091 236.41 601.287C239.663 607.328 244 612.052 249.422 615.46C254.998 618.713 261.194 620.339 268.01 620.339ZM457.524 664.718C432.586 664.718 413.146 657.979 399.205 644.503C385.264 631.027 378.294 612.13 378.294 587.811V498.358H433.128V586.185C433.128 598.112 435.219 606.786 439.401 612.207C443.738 617.629 449.934 620.339 457.989 620.339C466.043 620.339 472.162 617.629 476.344 612.207C480.681 606.786 482.85 598.112 482.85 586.185V498.358L536.754 498.358V587.811C536.754 612.13 529.784 631.027 515.843 644.503C501.902 657.979 482.463 664.718 457.524 664.718ZM631.593 620.107H616.723V661H561.889V498.358H640.19C655.215 498.358 668.304 500.836 679.456 505.793C690.609 510.749 699.206 517.875 705.247 527.169C711.288 536.462 714.308 547.305 714.308 559.697C714.308 571.314 711.675 581.46 706.409 590.134C701.142 598.809 693.552 605.702 683.639 610.813L717.794 661H659.242L631.593 620.107ZM659.01 559.697C659.01 553.656 657.151 549.009 653.434 545.756C649.716 542.349 644.14 540.645 636.705 540.645H616.723V578.749H636.705C644.14 578.749 649.716 577.123 653.434 573.87C657.151 570.462 659.01 565.738 659.01 559.697ZM795.657 664.718C782.181 664.718 769.014 663.246 756.158 660.303C743.456 657.205 733.001 653.1 724.791 647.989L742.45 608.025C750.194 612.517 758.869 616.157 768.472 618.945C778.076 621.579 787.292 622.895 796.121 622.895C803.711 622.895 809.133 622.198 812.386 620.804C815.639 619.255 817.265 617.009 817.265 614.066C817.265 610.658 815.096 608.103 810.759 606.399C806.577 604.695 799.607 602.836 789.848 600.822C777.301 598.189 766.846 595.401 758.481 592.458C750.117 589.36 742.837 584.403 736.641 577.588C730.445 570.617 727.347 561.246 727.347 549.474C727.347 539.251 730.213 529.957 735.944 521.592C741.675 513.228 750.194 506.645 761.502 501.843C772.964 497.041 786.828 494.64 803.092 494.64C814.244 494.64 825.165 495.879 835.853 498.358C846.695 500.681 856.222 504.166 864.431 508.813L847.935 548.544C831.98 540.49 816.878 536.462 802.627 536.462C788.531 536.462 781.484 539.87 781.484 546.686C781.484 549.939 783.575 552.417 787.757 554.121C791.939 555.67 798.832 557.374 808.436 559.232C820.828 561.556 831.283 564.267 839.803 567.364C848.322 570.308 855.68 575.187 861.875 582.002C868.226 588.818 871.402 598.112 871.402 609.884C871.402 620.107 868.536 629.401 862.805 637.765C857.074 645.975 848.477 652.558 837.014 657.515C825.707 662.317 811.921 664.718 795.657 664.718ZM1022.94 619.642V661L887.718 661V498.358L1019.92 498.358V539.715L941.623 539.715V558.768H1010.4V598.267L941.623 598.267V619.642L1022.94 619.642ZM1104.7 664.718C1091.22 664.718 1078.05 663.246 1065.2 660.303C1052.49 657.205 1042.04 653.1 1033.83 647.989L1051.49 608.025C1059.23 612.517 1067.91 616.157 1077.51 618.945C1087.11 621.579 1096.33 622.895 1105.16 622.895C1112.75 622.895 1118.17 622.198 1121.42 620.804C1124.68 619.255 1126.3 617.009 1126.3 614.066C1126.3 610.658 1124.13 608.103 1119.8 606.399C1115.62 604.695 1108.65 602.836 1098.89 600.822C1086.34 598.189 1075.88 595.401 1067.52 592.458C1059.16 589.36 1051.88 584.403 1045.68 577.588C1039.48 570.617 1036.39 561.246 1036.39 549.474C1036.39 539.251 1039.25 529.957 1044.98 521.592C1050.71 513.228 1059.23 506.645 1070.54 501.843C1082 497.041 1095.87 494.64 1112.13 494.64C1123.28 494.64 1134.2 495.879 1144.89 498.358C1155.73 500.681 1165.26 504.166 1173.47 508.813L1156.97 548.544C1141.02 540.49 1125.92 536.462 1111.67 536.462C1097.57 536.462 1090.52 539.87 1090.52 546.686C1090.52 549.939 1092.61 552.417 1096.8 554.121C1100.98 555.67 1107.87 557.374 1117.47 559.232C1129.87 561.556 1140.32 564.267 1148.84 567.364C1157.36 570.308 1164.72 575.187 1170.91 582.002C1177.26 588.818 1180.44 598.112 1180.44 609.884C1180.44 620.107 1177.57 629.401 1171.84 637.765C1166.11 645.975 1157.52 652.558 1146.05 657.515C1134.75 662.317 1120.96 664.718 1104.7 664.718Z" fill="white" fill-opacity="0.05"/>
</svg>
