<svg width="40" height="40" viewBox="0 0 40 40" fill="none" xmlns="http://www.w3.org/2000/svg">
<g clip-path="url(#clip0_1_945)">
<path d="M19.7847 0C8.85802 0 0 8.85802 0 19.7847C0 29.063 6.38809 36.8487 15.0055 38.987V25.8309H10.9259V19.7847H15.0055V17.1795C15.0055 10.4455 18.0532 7.3243 24.6644 7.3243C25.918 7.3243 28.0809 7.57043 28.9656 7.81576V13.2961C28.4987 13.2471 27.6875 13.2225 26.6801 13.2225C23.4362 13.2225 22.1826 14.4516 22.1826 17.6464V19.7847H28.6451L27.5348 25.8309H22.1826V39.4246C31.9792 38.2415 39.5702 29.9003 39.5702 19.7847C39.5694 8.85802 30.7114 0 19.7847 0Z" fill="white"/>
</g>
<defs>
<clipPath id="clip0_1_945">
<rect width="39.5694" height="39.5694" fill="white"/>
</clipPath>
</defs>
</svg>
