<svg width="40" height="40" viewBox="0 0 40 40" fill="none" xmlns="http://www.w3.org/2000/svg">
<g clip-path="url(#clip0_1_946)">
<path d="M19.7847 3.5628C25.071 3.5628 25.697 3.58598 27.7759 3.67872C29.708 3.76373 30.7513 4.08833 31.4469 4.35882C32.3666 4.71433 33.0312 5.14712 33.719 5.83495C34.4146 6.5305 34.8397 7.18742 35.1952 8.1071C35.4657 8.80266 35.7903 9.85372 35.8753 11.7781C35.968 13.8648 35.9912 14.4908 35.9912 19.7693C35.9912 25.0555 35.968 25.6815 35.8753 27.7604C35.7903 29.6925 35.4657 30.7359 35.1952 31.4314C34.8397 32.3511 34.4069 33.0158 33.719 33.7036C33.0235 34.3991 32.3666 34.8242 31.4469 35.1797C30.7513 35.4502 29.7003 35.7748 27.7759 35.8598C25.6892 35.9525 25.0632 35.9757 19.7847 35.9757C14.4985 35.9757 13.8725 35.9525 11.7936 35.8598C9.86145 35.7748 8.81811 35.4502 8.12256 35.1797C7.20288 34.8242 6.53823 34.3914 5.8504 33.7036C5.15485 33.008 4.72978 32.3511 4.37428 31.4314C4.10378 30.7359 3.77919 29.6848 3.69418 27.7604C3.60144 25.6738 3.57825 25.0478 3.57825 19.7693C3.57825 14.483 3.60144 13.857 3.69418 11.7781C3.77919 9.84599 4.10378 8.80266 4.37428 8.1071C4.72978 7.18742 5.16258 6.52278 5.8504 5.83495C6.54596 5.13939 7.20288 4.71433 8.12256 4.35882C8.81811 4.08833 9.86918 3.76373 11.7936 3.67872C13.8725 3.58598 14.4985 3.5628 19.7847 3.5628ZM19.7847 0C14.4135 0 13.7411 0.0231852 11.6313 0.115926C9.52913 0.208667 8.08391 0.548717 6.83191 1.03561C5.52581 1.54568 4.42065 2.21805 3.32322 3.32322C2.21805 4.42065 1.54568 5.52581 1.03561 6.82418C0.548717 8.08391 0.208667 9.5214 0.115926 11.6235C0.0231852 13.7411 0 14.4135 0 19.7847C0 25.156 0.0231852 25.8283 0.115926 27.9382C0.208667 30.0403 0.548717 31.4855 1.03561 32.7375C1.54568 34.0436 2.21805 35.1488 3.32322 36.2462C4.42065 37.3437 5.52581 38.0238 6.82418 38.5261C8.08391 39.013 9.5214 39.353 11.6235 39.4458C13.7334 39.5385 14.4058 39.5617 19.777 39.5617C25.1482 39.5617 25.8206 39.5385 27.9305 39.4458C30.0326 39.353 31.4778 39.013 32.7298 38.5261C34.0282 38.0238 35.1333 37.3437 36.2308 36.2462C37.3282 35.1488 38.0083 34.0436 38.5107 32.7453C38.9975 31.4855 39.3376 30.048 39.4303 27.9459C39.5231 25.8361 39.5463 25.1637 39.5463 19.7925C39.5463 14.4212 39.5231 13.7488 39.4303 11.639C39.3376 9.53685 38.9975 8.09164 38.5107 6.83964C38.0238 5.52581 37.3514 4.42065 36.2462 3.32322C35.1488 2.22578 34.0436 1.54568 32.7453 1.04333C31.4855 0.556445 30.048 0.216395 27.9459 0.123655C25.8283 0.0231852 25.156 0 19.7847 0Z" fill="white"/>
<path d="M19.7849 9.62189C14.1741 9.62189 9.62207 14.1739 9.62207 19.7847C9.62207 25.3956 14.1741 29.9476 19.7849 29.9476C25.3957 29.9476 29.9478 25.3956 29.9478 19.7847C29.9478 14.1739 25.3957 9.62189 19.7849 9.62189ZM19.7849 26.3771C16.1448 26.3771 13.1926 23.4248 13.1926 19.7847C13.1926 16.1447 16.1448 13.1924 19.7849 13.1924C23.425 13.1924 26.3773 16.1447 26.3773 19.7847C26.3773 23.4248 23.425 26.3771 19.7849 26.3771Z" fill="white"/>
<path d="M32.7218 9.21991C32.7218 10.5337 31.6553 11.5925 30.3492 11.5925C29.0354 11.5925 27.9766 10.526 27.9766 9.21991C27.9766 7.90608 29.0431 6.84729 30.3492 6.84729C31.6553 6.84729 32.7218 7.91381 32.7218 9.21991Z" fill="white"/>
</g>
<defs>
<clipPath id="clip0_1_946">
<rect width="39.5694" height="39.5694" fill="white"/>
</clipPath>
</defs>
</svg>
